<svg width="24" height="25" viewBox="0 0 24 25" fill="none" xmlns="http://www.w3.org/2000/svg">
<g clip-path="url(#clip0_2049_225)">
<path d="M24 12.1829C24 5.55544 18.6274 0.182861 12 0.182861C5.37258 0.182861 0 5.55544 0 12.1829C0 18.8103 5.37258 24.1829 12 24.1829C18.6274 24.1829 24 18.8103 24 12.1829Z" fill="#D6EFB6"/>
<path fill-rule="evenodd" clip-rule="evenodd" d="M17.096 7.57302L9.93601 14.4831L8.03602 12.4531C7.68602 12.1231 7.13601 12.1031 6.73601 12.3831C6.34601 12.6731 6.23602 13.1831 6.47602 13.5931L8.72601 17.2531C8.94601 17.5931 9.32602 17.8031 9.75602 17.8031C10.166 17.8031 10.556 17.5931 10.776 17.2531C11.136 16.7831 18.006 8.59302 18.006 8.59302C18.906 7.67302 17.816 6.86302 17.096 7.56302V7.57302Z" fill="#2D4312"/>
</g>
<defs>
<clipPath id="clip0_2049_225">
<rect width="24" height="24" fill="white" transform="translate(0 0.182861)"/>
</clipPath>
</defs>
</svg>
