<svg width="16" height="16" viewBox="0 0 16 16" fill="none" xmlns="http://www.w3.org/2000/svg">
<path fill-rule="evenodd" clip-rule="evenodd" d="M0.5 8C0.5 5.00405 0.5 3.50608 1.21391 2.42713C1.53271 1.94532 1.94532 1.53271 2.42713 1.21391C3.50608 0.5 5.00405 0.5 8 0.5C10.9959 0.5 12.4939 0.5 13.5729 1.21391C14.0547 1.53271 14.4673 1.94532 14.7861 2.42713C15.5 3.50608 15.5 5.00405 15.5 8C15.5 10.9959 15.5 12.4939 14.7861 13.5729C14.4673 14.0547 14.0547 14.4673 13.5729 14.7861C12.4939 15.5 10.9959 15.5 8 15.5C5.00405 15.5 3.50608 15.5 2.42713 14.7861C1.94532 14.4673 1.53271 14.0547 1.21391 13.5729C0.5 12.4939 0.5 10.9959 0.5 8ZM11.8826 7.99978C11.8826 10.1442 10.1442 11.8826 7.99978 11.8826C5.85535 11.8826 4.11694 10.1442 4.11694 7.99978C4.11694 5.85535 5.85535 4.11694 7.99978 4.11694C10.1442 4.11694 11.8826 5.85535 11.8826 7.99978ZM7.99978 10.569C9.4187 10.569 10.569 9.4187 10.569 7.99978C10.569 6.58087 9.4187 5.43061 7.99978 5.43061C6.58087 5.43061 5.43061 6.58087 5.43061 7.99978C5.43061 9.4187 6.58087 10.569 7.99978 10.569ZM12.0361 4.83462C12.5399 4.83462 12.9484 4.42615 12.9484 3.92227C12.9484 3.41839 12.5399 3.00992 12.0361 3.00992C11.5322 3.00992 11.1237 3.41839 11.1237 3.92227C11.1237 4.42615 11.5322 4.83462 12.0361 4.83462Z" fill="white"/>
</svg>
