<svg width="16" height="16" viewBox="0 0 16 16" fill="none" xmlns="http://www.w3.org/2000/svg">
<path d="M0.5 2.51638C0.5 2.03537 0.668924 1.63855 1.00676 1.32591C1.34459 1.01325 1.78379 0.856934 2.32432 0.856934C2.85522 0.856934 3.28474 1.01084 3.61293 1.31869C3.95077 1.63615 4.11969 2.0498 4.11969 2.55967C4.11969 3.02143 3.9556 3.40623 3.62741 3.71408C3.28958 4.03154 2.84556 4.19027 2.29537 4.19027H2.28089C1.75 4.19027 1.32047 4.03154 0.992278 3.71408C0.664088 3.39662 0.5 2.99738 0.5 2.51638ZM0.688224 15.1426V5.5034H3.90251V15.1426H0.688224ZM5.6834 15.1426H8.89768V9.76025C8.89768 9.42354 8.9363 9.1638 9.01351 8.98103C9.14864 8.65394 9.35376 8.37736 9.62886 8.1513C9.90396 7.92523 10.249 7.8122 10.6641 7.8122C11.7452 7.8122 12.2857 8.5385 12.2857 9.99113V15.1426H15.5V9.61595C15.5 8.19218 15.1622 7.11234 14.4865 6.37641C13.8108 5.64048 12.918 5.27252 11.8079 5.27252C10.5627 5.27252 9.59266 5.80643 8.89768 6.87425V6.90311H8.8832L8.89768 6.87425V5.5034H5.6834C5.7027 5.81123 5.71236 6.76842 5.71236 8.37497C5.71236 9.9815 5.7027 12.2374 5.6834 15.1426Z" fill="white"/>
</svg>
