<svg width="34" height="39" viewBox="0 0 34 39" fill="none" xmlns="http://www.w3.org/2000/svg">
<path d="M28.2486 28.248L19.7829 36.7137C19.0347 37.4612 18.0203 37.8811 16.9627 37.8811C15.9051 37.8811 14.8907 37.4612 14.1425 36.7137L5.67479 28.248C3.44259 26.0157 1.92247 23.1716 1.30665 20.0754C0.690828 16.9791 1.00697 13.7698 2.2151 10.8532C3.42322 7.93666 5.46908 5.44383 8.09395 3.68997C10.7188 1.93612 13.8048 1 16.9617 1C20.1186 1 23.2046 1.93612 25.8295 3.68997C28.4543 5.44383 30.5002 7.93666 31.7083 10.8532C32.9164 13.7698 33.2326 16.9791 32.6168 20.0754C32.0009 23.1716 30.4808 26.0157 28.2486 28.248Z" fill="#B6C34D" fill-opacity="0.05" stroke="#B6C34D" stroke-width="1.9154" stroke-linecap="round" stroke-linejoin="round"/>
<path d="M16.9612 22.9473C20.267 22.9473 22.9469 20.2675 22.9469 16.9617C22.9469 13.6559 20.267 10.9761 16.9612 10.9761C13.6554 10.9761 10.9756 13.6559 10.9756 16.9617C10.9756 20.2675 13.6554 22.9473 16.9612 22.9473Z" fill="#B6C34D" fill-opacity="0.05" stroke="#B6C34D" stroke-width="1.9154" stroke-linecap="round" stroke-linejoin="round"/>
</svg>
