<svg width="27" height="31" viewBox="0 0 27 31" fill="none" xmlns="http://www.w3.org/2000/svg">
<path d="M22.3391 22.3386L15.7094 28.9683C15.1234 29.5536 14.329 29.8825 13.5008 29.8825C12.6725 29.8825 11.8781 29.5536 11.2922 28.9683L4.66094 22.3386C2.91285 20.5904 1.72241 18.3631 1.24014 15.9384C0.75788 13.5136 1.00546 11.0003 1.95157 8.7163C2.89769 6.43227 4.49984 4.48007 6.55544 3.10658C8.61104 1.7331 11.0278 1 13.5 1C15.9722 1 18.389 1.7331 20.4446 3.10658C22.5002 4.48007 24.1023 6.43227 25.0484 8.7163C25.9945 11.0003 26.2421 13.5136 25.7599 15.9384C25.2776 18.3631 24.0871 20.5904 22.3391 22.3386Z" fill="#2D4312" fill-opacity="0.2" stroke="#2D4312" stroke-width="1.5" stroke-linecap="round" stroke-linejoin="round"/>
<path d="M13.5 18.1875C16.0888 18.1875 18.1875 16.0888 18.1875 13.5C18.1875 10.9112 16.0888 8.8125 13.5 8.8125C10.9112 8.8125 8.8125 10.9112 8.8125 13.5C8.8125 16.0888 10.9112 18.1875 13.5 18.1875Z" fill="#2D4312" fill-opacity="0.2" stroke="#2D4312" stroke-width="1.5" stroke-linecap="round" stroke-linejoin="round"/>
</svg>
