<svg width="34" height="34" viewBox="0 0 34 34" fill="none" xmlns="http://www.w3.org/2000/svg">
<path d="M4.54707 2.84985H11.6412L15.1883 11.7175L10.7544 14.3778C12.6538 18.2291 15.7708 21.3461 19.6221 23.2455L22.2824 18.8117L31.1501 22.3587V29.4529C31.1501 30.3936 30.7764 31.2958 30.1112 31.961C29.446 32.6262 28.5438 33 27.603 33C20.6849 32.5795 14.1599 29.6418 9.25905 24.7409C4.3582 19.8401 1.42042 13.315 1 6.39692C1 5.45618 1.37371 4.55397 2.03891 3.88877C2.70412 3.22356 3.60633 2.84985 4.54707 2.84985Z" fill="#B6C34D" fill-opacity="0.05"/>
<path d="M4.54707 2.84985H11.6412L15.1883 11.7175L10.7544 14.3778C12.6538 18.2291 15.7708 21.3461 19.6221 23.2455L22.2824 18.8117L31.1501 22.3587V29.4529C31.1501 30.3936 30.7764 31.2958 30.1112 31.961C29.446 32.6262 28.5438 33 27.603 33C20.6849 32.5795 14.1599 29.6418 9.25905 24.7409C4.3582 19.8401 1.42042 13.315 1 6.39692C1 5.45618 1.37371 4.55397 2.03891 3.88877C2.70412 3.22356 3.60633 2.84985 4.54707 2.84985" stroke="#B6C34D" stroke-width="1.9154" stroke-linecap="round" stroke-linejoin="round"/>
<path d="M22.2822 8.1709C23.223 8.1709 24.1252 8.54461 24.7904 9.20981C25.4556 9.87502 25.8293 10.7772 25.8293 11.718" fill="#B6C34D" fill-opacity="0.05"/>
<path d="M22.2822 8.1709C23.223 8.1709 24.1252 8.54461 24.7904 9.20981C25.4556 9.87502 25.8293 10.7772 25.8293 11.718" stroke="#B6C34D" stroke-width="1.9154" stroke-linecap="round" stroke-linejoin="round"/>
<path d="M22.2822 1.07666C25.1045 1.07666 27.8111 2.19779 29.8067 4.1934C31.8023 6.18901 32.9234 8.89565 32.9234 11.7179" stroke="#B6C34D" stroke-width="1.9154" stroke-linecap="round" stroke-linejoin="round"/>
</svg>
