<svg width="27" height="28" viewBox="0 0 27 28" fill="none" xmlns="http://www.w3.org/2000/svg">
<path d="M3.7778 2.83301H9.3334L12.1112 9.7775L8.63895 11.8609C10.1264 14.8769 12.5674 17.3179 15.5834 18.8053L17.6668 15.3331L24.6113 18.1109V23.6665C24.6113 24.4032 24.3186 25.1098 23.7977 25.6307C23.2767 26.1516 22.5702 26.4443 21.8335 26.4443C16.4158 26.1151 11.3058 23.8144 7.46787 19.9764C3.62989 16.1384 1.32924 11.0285 1 5.61081C1 4.87409 1.29266 4.16754 1.8136 3.64661C2.33454 3.12567 3.04108 2.83301 3.7778 2.83301Z" fill="#2D4312" fill-opacity="0.2"/>
<path d="M3.7778 2.83301H9.33339L12.1112 9.7775L8.63894 11.8609C10.1264 14.8769 12.5674 17.3179 15.5834 18.8053L17.6668 15.3331L24.6113 18.1109V23.6665C24.6113 24.4032 24.3186 25.1098 23.7977 25.6307C23.2767 26.1516 22.5702 26.4443 21.8335 26.4443C16.4158 26.1151 11.3058 23.8144 7.46787 19.9764C3.62989 16.1384 1.32924 11.0285 1 5.61081C1 4.87409 1.29266 4.16754 1.8136 3.64661C2.33454 3.12567 3.04108 2.83301 3.7778 2.83301" stroke="#2D4312" stroke-width="1.5" stroke-linecap="round" stroke-linejoin="round"/>
<path d="M17.667 7C18.4037 7 19.1103 7.29266 19.6312 7.8136C20.1521 8.33454 20.4448 9.04108 20.4448 9.7778" fill="#2D4312" fill-opacity="0.2"/>
<path d="M17.667 7C18.4037 7 19.1103 7.29266 19.6312 7.8136C20.1521 8.33454 20.4448 9.04108 20.4448 9.7778" stroke="#2D4312" stroke-width="1.5" stroke-linecap="round" stroke-linejoin="round"/>
<path d="M17.667 1.44434C19.8771 1.44434 21.9968 2.32232 23.5596 3.88513C25.1224 5.44795 26.0004 7.56758 26.0004 9.77773" stroke="#2D4312" stroke-width="1.5" stroke-linecap="round" stroke-linejoin="round"/>
</svg>
