<svg width="16" height="14" viewBox="0 0 16 14" fill="none" xmlns="http://www.w3.org/2000/svg">
<path d="M10.5225 0.91774V0.915039H11.2259L11.4829 0.966366C11.6542 0.999687 11.8097 1.04336 11.9495 1.09738C12.0893 1.15141 12.2245 1.21445 12.3553 1.28648C12.486 1.35851 12.6046 1.43191 12.711 1.50665C12.8165 1.58049 12.9112 1.65883 12.9951 1.74167C13.078 1.82541 13.2074 1.84702 13.3832 1.8065C13.5591 1.76598 13.7484 1.7097 13.9513 1.63766C14.1542 1.56563 14.3548 1.48459 14.5532 1.39454C14.7516 1.30449 14.8724 1.24731 14.9157 1.223C14.9581 1.19779 14.9806 1.18429 14.9833 1.18248L14.986 1.17843L14.9995 1.17167L15.0131 1.16492L15.0266 1.15817L15.0401 1.15141L15.0428 1.14736L15.0469 1.14466L15.051 1.14196L15.0537 1.1379L15.0672 1.13385L15.0807 1.13115L15.078 1.15141L15.0739 1.17167L15.0672 1.19193L15.0604 1.21219L15.0537 1.2257L15.0469 1.23921L15.0401 1.25947C15.0356 1.27297 15.0311 1.29098 15.0266 1.3135C15.0221 1.33601 14.9793 1.42605 14.8981 1.58364C14.817 1.74122 14.7155 1.90105 14.5938 2.06313C14.472 2.22522 14.3629 2.34767 14.2665 2.43053C14.1691 2.51427 14.1046 2.57279 14.073 2.60612C14.0415 2.64033 14.0032 2.67184 13.9581 2.70067L13.8904 2.74524L13.8769 2.75199L13.8634 2.75875L13.8607 2.7628L13.8566 2.7655L13.8526 2.7682L13.8499 2.77225L13.8363 2.77901L13.8228 2.78576L13.8201 2.78981L13.8161 2.79251L13.812 2.79521L13.8093 2.79927L13.8066 2.80332L13.8025 2.80602L13.7985 2.80872L13.7958 2.81277H13.8634L14.2421 2.73173C14.4946 2.6777 14.7358 2.61242 14.9657 2.53588L15.3309 2.41432L15.3715 2.40081L15.3918 2.39406L15.4053 2.3873L15.4188 2.38055L15.4324 2.3738L15.4459 2.36704L15.4729 2.36299L15.5 2.36029V2.3873L15.4932 2.39L15.4865 2.39406L15.4838 2.39811L15.4797 2.40081L15.4757 2.40351L15.4729 2.40756L15.4703 2.41162L15.4662 2.41432L15.4621 2.41702L15.4594 2.42107L15.4567 2.42512L15.4527 2.42782L15.4459 2.44133L15.4391 2.45484L15.4351 2.45754C15.4333 2.46024 15.376 2.53677 15.2633 2.68716C15.1506 2.83844 15.0897 2.91497 15.0807 2.91678C15.0717 2.91948 15.0591 2.93299 15.0428 2.9573C15.0275 2.9825 14.9319 3.08291 14.7561 3.2585C14.5803 3.4341 14.408 3.59032 14.2394 3.7272C14.0699 3.86497 13.9842 4.03425 13.9824 4.23506C13.9797 4.43497 13.9694 4.66099 13.9513 4.91311C13.9333 5.16525 13.8995 5.43763 13.8499 5.73029C13.8003 6.02294 13.7236 6.35387 13.6199 6.72305C13.5162 7.09224 13.39 7.45243 13.2412 7.80361C13.0924 8.15479 12.9369 8.46995 12.7746 8.7491C12.6123 9.02825 12.4635 9.26462 12.3282 9.45822C12.193 9.65182 12.0555 9.83416 11.9157 10.0053C11.7759 10.1763 11.5992 10.3691 11.3855 10.5834C11.1709 10.7968 11.0537 10.9138 11.0338 10.9345C11.0131 10.9544 10.9247 11.0282 10.7687 11.1561C10.6136 11.2848 10.4468 11.4136 10.2683 11.5424C10.0906 11.6702 9.92741 11.7769 9.77863 11.8625C9.62985 11.948 9.45042 12.0457 9.24031 12.1556C9.03112 12.2663 8.80478 12.369 8.56132 12.4635C8.31785 12.5581 8.06087 12.6459 7.79035 12.7269C7.51984 12.808 7.25835 12.871 7.00586 12.916C6.75339 12.961 6.46709 12.9993 6.14698 13.0308L5.66682 13.0781V13.0849H4.78765V13.0781L4.67268 13.0713C4.59604 13.0668 4.53292 13.0623 4.48332 13.0578C4.43373 13.0533 4.24662 13.0286 3.922 12.9835C3.59739 12.9385 3.34266 12.8935 3.1578 12.8485C2.97296 12.8035 2.69793 12.7179 2.33273 12.5918C1.96754 12.4658 1.65509 12.3384 1.3954 12.2096C1.13661 12.0817 0.974306 12.0007 0.908476 11.9665C0.843553 11.9332 0.770514 11.8917 0.68936 11.8422L0.567628 11.7679L0.564937 11.7639L0.560866 11.7612L0.556808 11.7585L0.554103 11.7544L0.540577 11.7477L0.527051 11.7409L0.52436 11.7369L0.520289 11.7342L0.516231 11.7315L0.513526 11.7274L0.510834 11.7233L0.506763 11.7206H0.5V11.6936L0.513526 11.6963L0.527051 11.7004L0.587917 11.7071C0.628494 11.7116 0.738959 11.7184 0.919297 11.7274C1.09965 11.7364 1.29125 11.7364 1.49414 11.7274C1.69702 11.7184 1.90443 11.6981 2.11632 11.6666C2.32823 11.6351 2.57845 11.5811 2.867 11.5045C3.15555 11.428 3.42066 11.337 3.66232 11.2317C3.90308 11.1254 4.0744 11.0462 4.1763 10.994C4.27728 10.9426 4.43147 10.8472 4.63886 10.7076L4.94995 10.4983L4.95266 10.4942L4.95672 10.4915L4.96079 10.4888L4.96348 10.4848L4.96619 10.4807L4.97024 10.478L4.97431 10.4753L4.97701 10.4712L4.99053 10.4672L5.00406 10.4645L5.00676 10.451L5.01082 10.4375L5.01489 10.4348L5.01758 10.4307L4.90938 10.424C4.83725 10.4195 4.76736 10.415 4.69973 10.4105C4.6321 10.406 4.52615 10.3857 4.38188 10.3497C4.23761 10.3137 4.08207 10.2596 3.91524 10.1876C3.74843 10.1156 3.58612 10.03 3.42831 9.93097C3.27052 9.83192 3.15645 9.74951 3.08611 9.68379C3.01669 9.61894 2.92651 9.52711 2.8156 9.40825C2.7056 9.28849 2.61001 9.16556 2.52885 9.0395C2.4477 8.91344 2.37016 8.768 2.29623 8.60323L2.18395 8.3574L2.17719 8.33714L2.17042 8.31688L2.16637 8.30337L2.16366 8.28986L2.18395 8.29257L2.20424 8.29662L2.35302 8.31688C2.45222 8.33039 2.60776 8.33488 2.81966 8.33039C3.03156 8.32589 3.17809 8.31688 3.25924 8.30337C3.3404 8.28986 3.39 8.28086 3.40803 8.27636L3.43508 8.2696L3.46889 8.26285L3.50271 8.2561L3.50541 8.25205L3.50947 8.24934L3.51354 8.24664L3.51623 8.24259L3.48918 8.23584L3.46213 8.22908L3.43508 8.22233L3.40803 8.21558L3.38097 8.20882C3.36294 8.20432 3.33139 8.19532 3.28629 8.18181C3.24121 8.1683 3.11948 8.11877 2.9211 8.03323C2.72273 7.94769 2.56493 7.86439 2.4477 7.78335C2.33018 7.70208 2.21813 7.61319 2.11226 7.51726C2.00676 7.42001 1.8909 7.29484 1.76465 7.14177C1.63842 6.98869 1.52571 6.81085 1.42651 6.60824C1.32733 6.40564 1.25294 6.21204 1.20334 6.02744C1.15394 5.84393 1.12135 5.65631 1.10596 5.4669L1.08161 5.18325L1.09513 5.18595L1.10866 5.19001L1.12218 5.19676L1.13571 5.20351L1.14923 5.21027L1.16276 5.21702L1.37241 5.31157C1.51218 5.37461 1.68576 5.42864 1.89315 5.47365C2.10055 5.51867 2.22453 5.54344 2.2651 5.54794L2.32597 5.5547H2.4477L2.44501 5.55064L2.44094 5.54794L2.43688 5.54524L2.43418 5.54119L2.43148 5.53714L2.42741 5.53444L2.42335 5.53173L2.42065 5.52768L2.40712 5.52093L2.3936 5.51417L2.39091 5.51012L2.38684 5.50742L2.38278 5.50472L2.38007 5.50067L2.36655 5.49391L2.35302 5.48716L2.35033 5.48311C2.34762 5.4813 2.30885 5.45249 2.23399 5.39666C2.16005 5.33993 2.08251 5.26655 2.00135 5.1765C1.9202 5.08645 1.83904 4.9919 1.75789 4.89285C1.67659 4.79358 1.60417 4.68737 1.54148 4.57544C1.47837 4.46288 1.41163 4.3197 1.3413 4.14592C1.27187 3.97303 1.21912 3.79878 1.18305 3.62319C1.14699 3.4476 1.1267 3.27427 1.12218 3.10317C1.11768 2.93208 1.12218 2.78576 1.13571 2.6642C1.14923 2.54263 1.17628 2.40531 1.21686 2.25223C1.25744 2.09916 1.31606 1.93707 1.3927 1.76598L1.50766 1.50935L1.51443 1.48909L1.52119 1.46883L1.52526 1.46612L1.52795 1.46207L1.53066 1.45802L1.53472 1.45532L1.53879 1.45802L1.54148 1.46207L1.54418 1.46612L1.54824 1.46883L1.55231 1.47153L1.555 1.47558L1.55771 1.47963L1.56177 1.48233L1.56853 1.49584L1.57529 1.50935L1.57936 1.51205L1.58206 1.5161L1.76465 1.71871C1.88638 1.85378 2.03066 2.00461 2.19748 2.17119C2.3643 2.33777 2.45672 2.42422 2.47475 2.43053C2.4928 2.43772 2.51533 2.45843 2.54238 2.49266C2.56943 2.52598 2.65961 2.60567 2.81289 2.73173C2.96619 2.85779 3.16682 3.00413 3.41479 3.17071C3.66277 3.33729 3.93779 3.50163 4.23986 3.66371C4.54194 3.8258 4.86656 3.97212 5.21371 4.10269C5.56087 4.23326 5.80433 4.3188 5.94409 4.35933C6.08387 4.39985 6.32281 4.45162 6.66096 4.51466C6.9991 4.57769 7.25384 4.61821 7.42516 4.63622C7.59649 4.65422 7.71372 4.66458 7.77683 4.66729L7.87151 4.66999L7.86881 4.64973L7.86474 4.62947L7.83769 4.46063C7.81966 4.34807 7.81064 4.19049 7.81064 3.98788C7.81064 3.78528 7.82643 3.59844 7.85798 3.42734C7.88955 3.25625 7.93689 3.08291 8 2.90732C8.06312 2.73173 8.1249 2.5908 8.1853 2.48455C8.24663 2.3792 8.32688 2.25899 8.42606 2.12392C8.52526 1.98885 8.65375 1.84928 8.81154 1.7052C8.96935 1.56112 9.14968 1.4328 9.35257 1.32025C9.55546 1.2077 9.74257 1.12214 9.91389 1.06362C10.0852 1.00509 10.2295 0.966811 10.3467 0.948807C10.4639 0.930802 10.5225 0.920442 10.5225 0.91774Z" fill="white"/>
</svg>
