<svg width="18" height="12" viewBox="0 0 18 12" fill="none" xmlns="http://www.w3.org/2000/svg">
<path d="M9.36555 11.8165L5.98039 11.7532C4.88435 11.7312 3.78558 11.7752 2.71103 11.5468C1.07639 11.2055 0.96059 9.53227 0.839414 8.12873C0.672445 6.15553 0.737084 4.14651 1.05217 2.18978C1.23005 1.09185 1.93008 0.43671 3.01265 0.365418C6.66711 0.106689 10.3459 0.137351 13.9922 0.258057C14.3773 0.269123 14.7651 0.329602 15.1448 0.398445C17.0192 0.73421 17.0649 2.63037 17.1864 4.22659C17.3076 5.83927 17.2565 7.46024 17.0249 9.06194C16.839 10.3881 16.4835 11.5002 14.9832 11.6076C13.1034 11.748 11.2668 11.861 9.38167 11.825C9.38175 11.8165 9.37092 11.8165 9.36555 11.8165ZM7.3754 8.459C8.79199 7.62782 10.1815 6.8105 11.59 5.9849C10.1708 5.15372 8.78389 4.3364 7.3754 3.5108V8.459Z" fill="white"/>
</svg>
