<svg version="1.2" xmlns="http://www.w3.org/2000/svg" viewBox="0 0 1920 499" width="1920" height="499">
	<title>zigzag-animation-svg</title>
	<defs>
		<clipPath clipPathUnits="userSpaceOnUse" id="cp1">
			<path d="m-730-292.39l2488.27-933.61 597.37 1592.11-2488.27 933.61z"/>
		</clipPath>
		<linearGradient id="g1" x2="1" gradientUnits="userSpaceOnUse" gradientTransform="matrix(2456.418,-921.657,414.141,1103.777,-432.088,404.74)">
			<stop offset="0" stop-color="#b6c34d"/>
			<stop offset=".46" stop-color="#edf5a9"/>
			<stop offset="1" stop-color="#2d4312"/>
		</linearGradient>
		<linearGradient id="g2" x2="1" gradientUnits="userSpaceOnUse" gradientTransform="matrix(2445.668,-917.622,416.49,1110.038,-434.388,402.3)">
			<stop offset="0" stop-color="#b6c34d"/>
			<stop offset=".46" stop-color="#edf5a9"/>
			<stop offset="1" stop-color="#2d4312"/>
		</linearGradient>
		<linearGradient id="g3" x2="1" gradientUnits="userSpaceOnUse" gradientTransform="matrix(2435.139,-913.679,423.741,1129.354,-434.269,406.34)">
			<stop offset="0" stop-color="#b6c34d"/>
			<stop offset=".46" stop-color="#edf5a9"/>
			<stop offset="1" stop-color="#2d4312"/>
		</linearGradient>
		<linearGradient id="g4" x2="1" gradientUnits="userSpaceOnUse" gradientTransform="matrix(2424.459,-909.663,430.984,1148.67,-434.209,410.38)">
			<stop offset="0" stop-color="#b6c34d"/>
			<stop offset=".46" stop-color="#edf5a9"/>
			<stop offset="1" stop-color="#2d4312"/>
		</linearGradient>
		<linearGradient id="g5" x2="1" gradientUnits="userSpaceOnUse" gradientTransform="matrix(2413.757,-905.656,438.211,1167.921,-434.037,414.43)">
			<stop offset="0" stop-color="#b6c34d"/>
			<stop offset=".46" stop-color="#edf5a9"/>
			<stop offset="1" stop-color="#2d4312"/>
		</linearGradient>
		<linearGradient id="g6" x2="1" gradientUnits="userSpaceOnUse" gradientTransform="matrix(2403.073,-901.64,445.434,1187.181,-434.013,418.52)">
			<stop offset="0" stop-color="#b6c34d"/>
			<stop offset=".46" stop-color="#edf5a9"/>
			<stop offset="1" stop-color="#2d4312"/>
		</linearGradient>
		<linearGradient id="g7" x2="1" gradientUnits="userSpaceOnUse" gradientTransform="matrix(2392.342,-897.619,452.654,1206.419,-433.842,422.57)">
			<stop offset="0" stop-color="#b6c34d"/>
			<stop offset=".46" stop-color="#edf5a9"/>
			<stop offset="1" stop-color="#2d4312"/>
		</linearGradient>
		<linearGradient id="g8" x2="1" gradientUnits="userSpaceOnUse" gradientTransform="matrix(2381.786,-893.659,459.895,1225.716,-433.756,426.62)">
			<stop offset="0" stop-color="#b6c34d"/>
			<stop offset=".46" stop-color="#edf5a9"/>
			<stop offset="1" stop-color="#2d4312"/>
		</linearGradient>
		<linearGradient id="g9" x2="1" gradientUnits="userSpaceOnUse" gradientTransform="matrix(2370.989,-889.6,467.118,1244.978,-433.719,430.7)">
			<stop offset="0" stop-color="#b6c34d"/>
			<stop offset=".46" stop-color="#edf5a9"/>
			<stop offset="1" stop-color="#2d4312"/>
		</linearGradient>
		<linearGradient id="g10" x2="1" gradientUnits="userSpaceOnUse" gradientTransform="matrix(2360.348,-885.609,474.364,1264.286,-433.538,434.71)">
			<stop offset="0" stop-color="#b6c34d"/>
			<stop offset=".46" stop-color="#edf5a9"/>
			<stop offset="1" stop-color="#2d4312"/>
		</linearGradient>
		<linearGradient id="g11" x2="1" gradientUnits="userSpaceOnUse" gradientTransform="matrix(2349.689,-881.61,481.606,1283.589,-433.389,438.76)">
			<stop offset="0" stop-color="#b6c34d"/>
			<stop offset=".46" stop-color="#edf5a9"/>
			<stop offset="1" stop-color="#2d4312"/>
		</linearGradient>
		<linearGradient id="g12" x2="1" gradientUnits="userSpaceOnUse" gradientTransform="matrix(2338.939,-877.584,488.835,1302.843,-433.309,442.82)">
			<stop offset="0" stop-color="#b6c34d"/>
			<stop offset=".46" stop-color="#edf5a9"/>
			<stop offset="1" stop-color="#2d4312"/>
		</linearGradient>
		<linearGradient id="g13" x2="1" gradientUnits="userSpaceOnUse" gradientTransform="matrix(2328.198,-873.544,496.075,1322.155,-433.128,446.82)">
			<stop offset="0" stop-color="#b6c34d"/>
			<stop offset=".46" stop-color="#edf5a9"/>
			<stop offset="1" stop-color="#2d4312"/>
		</linearGradient>
		<linearGradient id="g14" x2="1" gradientUnits="userSpaceOnUse" gradientTransform="matrix(2317.541,-869.547,503.283,1341.363,-433.071,450.94)">
			<stop offset="0" stop-color="#b6c34d"/>
			<stop offset=".46" stop-color="#edf5a9"/>
			<stop offset="1" stop-color="#2d4312"/>
		</linearGradient>
		<linearGradient id="g15" x2="1" gradientUnits="userSpaceOnUse" gradientTransform="matrix(2306.755,-865.506,510.531,1360.671,-432.895,454.96)">
			<stop offset="0" stop-color="#b6c34d"/>
			<stop offset=".46" stop-color="#edf5a9"/>
			<stop offset="1" stop-color="#2d4312"/>
		</linearGradient>
		<linearGradient id="g16" x2="1" gradientUnits="userSpaceOnUse" gradientTransform="matrix(2296.061,-861.491,517.766,1379.959,-432.781,459.02)">
			<stop offset="0" stop-color="#b6c34d"/>
			<stop offset=".46" stop-color="#edf5a9"/>
			<stop offset="1" stop-color="#2d4312"/>
		</linearGradient>
		<linearGradient id="g17" x2="1" gradientUnits="userSpaceOnUse" gradientTransform="matrix(2285.329,-857.463,525.024,1399.304,-432.699,463.1)">
			<stop offset="0" stop-color="#b6c34d"/>
			<stop offset=".46" stop-color="#edf5a9"/>
			<stop offset="1" stop-color="#2d4312"/>
		</linearGradient>
		<linearGradient id="g18" x2="1" gradientUnits="userSpaceOnUse" gradientTransform="matrix(2274.589,-853.439,532.253,1418.564,-432.579,467.14)">
			<stop offset="0" stop-color="#b6c34d"/>
			<stop offset=".46" stop-color="#edf5a9"/>
			<stop offset="1" stop-color="#2d4312"/>
		</linearGradient>
		<linearGradient id="g19" x2="1" gradientUnits="userSpaceOnUse" gradientTransform="matrix(2263.907,-849.422,539.486,1437.854,-432.447,471.18)">
			<stop offset="0" stop-color="#b6c34d"/>
			<stop offset=".46" stop-color="#edf5a9"/>
			<stop offset="1" stop-color="#2d4312"/>
		</linearGradient>
		<linearGradient id="g20" x2="1" gradientUnits="userSpaceOnUse" gradientTransform="matrix(2253.094,-845.367,546.73,1457.158,-432.314,475.23)">
			<stop offset="0" stop-color="#b6c34d"/>
			<stop offset=".46" stop-color="#edf5a9"/>
			<stop offset="1" stop-color="#2d4312"/>
		</linearGradient>
		<linearGradient id="g21" x2="1" gradientUnits="userSpaceOnUse" gradientTransform="matrix(2242.372,-841.349,553.953,1476.402,-432.182,479.32)">
			<stop offset="0" stop-color="#b6c34d"/>
			<stop offset=".46" stop-color="#edf5a9"/>
			<stop offset="1" stop-color="#2d4312"/>
		</linearGradient>
		<linearGradient id="g22" x2="1" gradientUnits="userSpaceOnUse" gradientTransform="matrix(2231.614,-837.308,561.206,1495.74,-432.034,483.34)">
			<stop offset="0" stop-color="#b6c34d"/>
			<stop offset=".46" stop-color="#edf5a9"/>
			<stop offset="1" stop-color="#2d4312"/>
		</linearGradient>
		<linearGradient id="g23" x2="1" gradientUnits="userSpaceOnUse" gradientTransform="matrix(2220.863,-833.282,568.43,1514.98,-431.893,487.42)">
			<stop offset="0" stop-color="#b6c34d"/>
			<stop offset=".46" stop-color="#edf5a9"/>
			<stop offset="1" stop-color="#2d4312"/>
		</linearGradient>
		<linearGradient id="g24" x2="1" gradientUnits="userSpaceOnUse" gradientTransform="matrix(2210.104,-829.24,575.667,1534.277,-431.734,491.47)">
			<stop offset="0" stop-color="#b6c34d"/>
			<stop offset=".46" stop-color="#edf5a9"/>
			<stop offset="1" stop-color="#2d4312"/>
		</linearGradient>
		<linearGradient id="g25" x2="1" gradientUnits="userSpaceOnUse" gradientTransform="matrix(2199.389,-825.219,582.907,1553.576,-431.609,495.54)">
			<stop offset="0" stop-color="#b6c34d"/>
			<stop offset=".46" stop-color="#edf5a9"/>
			<stop offset="1" stop-color="#2d4312"/>
		</linearGradient>
		<linearGradient id="g26" x2="1" gradientUnits="userSpaceOnUse" gradientTransform="matrix(2188.654,-821.19,590.145,1572.866,-431.474,499.59)">
			<stop offset="0" stop-color="#b6c34d"/>
			<stop offset=".46" stop-color="#edf5a9"/>
			<stop offset="1" stop-color="#2d4312"/>
		</linearGradient>
		<linearGradient id="g27" x2="1" gradientUnits="userSpaceOnUse" gradientTransform="matrix(2177.868,-817.142,597.366,1592.116,-431.318,503.66)">
			<stop offset="0" stop-color="#b6c34d"/>
			<stop offset=".46" stop-color="#edf5a9"/>
			<stop offset="1" stop-color="#2d4312"/>
		</linearGradient>
	</defs>
	<style>
		.s0 { fill: url(#g1) } 
		.s1 { fill: url(#g2) } 
		.s2 { fill: url(#g3) } 
		.s3 { fill: url(#g4) } 
		.s4 { fill: url(#g5) } 
		.s5 { fill: url(#g6) } 
		.s6 { fill: url(#g7) } 
		.s7 { fill: url(#g8) } 
		.s8 { fill: url(#g9) } 
		.s9 { fill: url(#g10) } 
		.s10 { fill: url(#g11) } 
		.s11 { fill: url(#g12) } 
		.s12 { fill: url(#g13) } 
		.s13 { fill: url(#g14) } 
		.s14 { fill: url(#g15) } 
		.s15 { fill: url(#g16) } 
		.s16 { fill: url(#g17) } 
		.s17 { fill: url(#g18) } 
		.s18 { fill: url(#g19) } 
		.s19 { fill: url(#g20) } 
		.s20 { fill: url(#g21) } 
		.s21 { fill: url(#g22) } 
		.s22 { fill: url(#g23) } 
		.s23 { fill: url(#g24) } 
		.s24 { fill: url(#g25) } 
		.s25 { fill: url(#g26) } 
		.s26 { fill: url(#g27) } 
	</style>
	<g id="Clip-Path" clip-path="url(#cp1)">
		<g id="Layer" style="opacity: .3">
			<path id="Layer" class="s0" d="m1358.2 362.6c-39.7 14.9-80.6 25.4-125.2 32.2-157 24.1-295.3-8.5-354.3-22.4-114.1-26.9-174.5-61.5-227.7-92-56.5-32.3-101.1-57.8-189.3-62.6-86.8-4.7-151.8 14.5-209.1 31.4-35.1 10.3-68.3 20.1-101.1 22.5-36.5 2.6-69.1-4.1-102.6-21.1-35.9-18.2-51.2-37.1-67.4-57.3-17-21-34.5-42.7-78-63.9-66-32.1-120.6-28.1-173.5-24.1-40.9 3.1-83.3 6.3-131-7.2-41.3-11.7-80.2-34.4-115.8-67.3-45.2-41.9-86.4-101.7-122.3-177.8l2.2-1c63.9 135.4 143.4 217.4 236.5 243.8 47.3 13.4 89.4 10.2 130.2 7.1 53.1-4 108.1-8.1 174.7 24.4 43.9 21.4 61.7 43.3 78.8 64.5 16 19.9 31.2 38.7 66.6 56.7 72.3 36.6 129.5 19.7 201.9-1.6 57.6-17 122.8-36.3 209.9-31.5 40.8 2.2 75 9 107.7 21.3 29.5 11.2 55.4 26 82.7 41.6 53.1 30.4 113.3 64.9 227.1 91.7 58.9 13.9 196.8 46.4 353.3 22.4 146.5-22.5 231.8-81 330.6-148.8 41.8-28.7 85.2-58.4 135.8-87 57.1-32.2 117.1-58.8 179.3-79.3 110.6-36.8 227.5-56.2 347.5-57.5l0.1 2.5c-119.8 1.3-236.5 20.5-346.8 57.3-140.9 46.9-233.2 110.2-314.5 166-48.7 33.4-94.6 64.9-147 91.1-19.3 9.6-39.1 18.3-59.3 25.9z"/>
			<path id="Layer" class="s1" d="m2218.7 40c-61.6-3.9-188.4-3.5-345 43.1-78.2 23.3-148.6 53.3-215.1 91.7-39.9 22.9-75.7 46.7-110.2 69.8-48 32-93.3 62.2-145.3 87.3-58.5 28.2-116.7 45.8-183.3 55.3-147.6 20.9-273.5-6.4-341-21.2q-8.5-1.8-15.8-3.4c-112.6-23.8-172.3-56.7-224.9-85.8-53-29.3-98.8-54.5-184-58-84.6-3.5-148.2 16.3-204.3 33.7-34.2 10.6-66.5 20.6-98.5 23.4-35.5 3.2-67.2-2.7-99.9-18.6-35.1-17-50.4-35.1-66.6-54.2-16.9-19.9-34.4-40.5-76.7-60.8-64.4-30.8-116.9-30.8-167.7-30.8-41.8-0.1-85-0.1-134.9-16.9-24.6-8.2-48.2-19.6-70-33.9-31.9-21-61.9-47.5-89.3-78.8-32.3-37-62.2-82.2-88.7-134.4l2.1-1.1c49.3 96.9 107.3 166.3 177.2 212.2 21.6 14.2 45 25.6 69.4 33.7 49.5 16.7 92.6 16.7 134.2 16.7 51.1 0.1 103.9 0.1 168.7 31.1 42.8 20.5 60.4 41.3 77.5 61.4 16 19 31.1 36.8 65.8 53.6 70.3 34.3 126.1 17 196.6-4.9 56.3-17.5 120-37.3 205.1-33.8 85.8 3.5 131.8 28.9 185.1 58.3 52.5 29 111.9 61.9 224.2 85.6q7.3 1.6 15.8 3.4c67.4 14.7 193 42 340.1 21.1 145.4-20.6 233.9-79.7 327.7-142.2 34.6-23.1 70.4-46.9 110.3-69.8 66.8-38.6 137.3-68.6 215.6-91.9 157.1-46.7 284.1-47.2 345.9-43.2z"/>
			<path id="Layer" class="s2" d="m2211.6 57.8c-46.1-6.3-172-16-343.2 28.9-80.9 21.2-152 48.7-217.3 84.2-42.5 23.1-80.4 47.7-117 71.5-59.8 38.8-117.5 76.2-189.3 103.1-40.6 15.3-85.7 27.2-138.3 34-141.3 18.5-259.2-6-329.6-20.6-10.7-2.2-20.7-4.3-29.5-6-110.8-21-169.7-52.2-221.6-79.7-52-27.5-96.9-51.2-179.4-53.4-82.5-2.2-144.6 18-199.4 35.9-33.2 10.8-64.7 21-95.8 24.4-34.6 3.7-65.5-1.5-97.2-16.2-34.4-15.9-49.7-33-65.8-51.1-16.9-18.8-34.3-38.4-75.6-57.8-62.1-29.1-112.4-33-161.1-36.8-42.8-3.3-87-6.7-139.5-27.2-26.7-10.3-49.1-22-70.5-36.5-76-51.5-137.3-121-187.5-212.5l2.1-1.2c50 91.1 111.1 160.4 186.7 211.7 21.2 14.4 43.5 25.9 70 36.2 52.2 20.3 96.2 23.7 138.9 27 48.8 3.8 99.3 7.7 161.9 37.1 41.8 19.6 59.4 39.3 76.4 58.3 15.9 17.9 31 34.8 64.9 50.6 68.4 31.6 125.4 13.1 191.4-8.4 55-17.9 117.2-38.2 200.2-36 83 2.1 128.2 26 180.4 53.7 51.8 27.4 110.5 58.5 220.9 79.4 8.8 1.7 18.9 3.8 29.6 6 70.2 14.6 187.9 39.1 328.8 20.6 145.1-19 233.3-76.2 326.6-136.7 36.7-23.8 74.6-48.4 117.2-71.6 65.5-35.6 136.7-63.2 217.8-84.5 65.2-17 130.5-27.9 194-32.3 54.2-3.7 106.1-2.6 150.2 3.4z"/>
			<path id="Layer" class="s3" d="m2204.6 75.5c-92.2-18.9-216.6-13.6-341.5 14.7-83.9 19-155.6 44.1-219.4 76.8-45.4 23.2-85.4 48.5-124.2 73-93.1 58.8-181 114.4-326.2 131.9-136.6 16.4-246.8-5.9-319.7-20.7-15.9-3.2-29.6-6-41.9-8-108.5-18.4-166.6-47.7-217.8-73.5-51.1-25.8-95.2-48-175.1-49-80.5-0.9-141.1 19.8-194.6 38.2-32.3 11-62.9 21.5-93.2 25.3-33.7 4.3-63.7-0.1-94.6-13.7-33.7-14.8-48.9-31-65-48-16.8-17.8-34.1-36.2-74.3-54.7-59.5-27.4-107.1-34.7-153.3-41.9-44.1-6.8-89.7-13.9-145.4-38.4-19-8.4-44.2-20.4-71.1-39.2-52.3-36.6-129.7-98.3-196.8-211.9l2-1.2c66.9 113.1 144 174.7 196.2 211.1 26.7 18.7 51.8 30.6 70.7 39 55.4 24.4 100.8 31.4 144.8 38.2 46.2 7.2 94.1 14.6 153.9 42.1 40.6 18.7 58.1 37.3 75 55.2 16 16.9 31 32.9 64.3 47.5 66.4 29.2 121.8 10.2 186-11.7 53.7-18.4 114.5-39.2 195.4-38.4 80.5 1 124.8 23.3 176.1 49.2 51.1 25.8 109 55 217.2 73.3 12.3 2.1 26 4.9 41.9 8.1 72.8 14.7 182.8 37 319 20.6 144.7-17.4 232.4-72.8 325.2-131.5 38.8-24.5 78.9-49.9 124.4-73.1 64-32.8 135.9-58 220-77 125.2-28.3 250-33.7 342.4-14.7z"/>
			<path id="Layer" class="s4" d="m2197.5 93.2c-88-24-211.8-23.9-339.7 0.6-86.6 16.5-159 39.2-221.5 69.3-48.1 23.1-90.3 49.1-131 74.2-55.4 34.1-109.1 67.1-174.1 91.5-43.8 16.5-92.8 29-151.1 35.4-132.8 14.6-235.7-5.9-310.8-20.9-20.2-4.1-37.6-7.6-53.3-9.9-106-15.9-163.2-43.2-213.7-67.3-50.2-24-93.6-44.7-171.1-44.4-78.4 0.4-137.5 21.7-189.7 40.5-62.9 22.6-117.2 42.1-182.5 15-33.1-13.7-48.3-28.9-64.4-45-16.7-16.7-33.9-34-72.9-51.5-55.8-25.2-100.2-35.5-143.1-45.5-48.1-11.2-93.5-21.7-153.6-51.2-22.2-11-46.2-23.5-71.7-41.8-65.3-46.9-140.9-108.6-206.2-211.3l2-1.3c65.1 102.4 140.5 163.9 205.6 210.6 25.3 18.2 49.2 30.7 71.3 41.6 59.9 29.4 105.2 39.9 153.2 51.1 43 10 87.5 20.3 143.5 45.5 39.4 17.8 56.8 35.2 73.6 52.1 15.9 15.9 31 30.9 63.6 44.5 64.4 26.7 118.4 7.3 180.8-15.1 52.4-18.9 111.7-40.2 190.5-40.6 78.1-0.4 121.7 20.5 172.2 44.6 50.3 24 107.4 51.3 213 67.1 15.7 2.3 33.2 5.8 53.3 9.9 75 15 177.7 35.5 310.1 20.9 144.5-15.9 231.8-69.7 324.2-126.6 40.8-25.2 83.1-51.1 131.3-74.4 62.7-30.1 135.3-52.9 222.1-69.4 66-12.6 130-18.9 190.1-18.6 57 0.2 107.7 6.3 150.6 18.1z"/>
			<path id="Layer" class="s5" d="m2190.4 111c-86.1-29.3-206.1-34.1-337.9-13.7-89 13.9-162.2 34.1-223.7 61.9-50.7 22.9-94.8 49.3-137.5 75-92.4 55.5-179.6 107.9-324.4 122.4-129.7 13-229.7-6.9-302.8-21.5-24.1-4.8-44.9-8.9-63.7-11.4-103.2-13.6-159.5-38.9-209.2-61.2-49.5-22.2-92.3-41.4-167.6-39.8-76.3 1.7-134 23.5-184.9 42.8-61.1 23.1-113.9 43-177.2 18.4-32.5-12.7-47.7-26.9-63.8-42.1-16.6-15.5-33.8-31.7-71.5-48.3-49.9-22-89.6-34.2-128.1-46.1-51.4-15.8-99.9-30.8-166.7-66.9-22.8-12.3-47.1-25.9-72.2-44.4-72.7-53.4-149.3-113.7-215.7-210.6l2-1.4c66.2 96.6 142.5 156.7 215 210.1 25.1 18.3 49.3 31.9 72 44.1 66.5 36.1 115 51 166.3 66.8 38.5 11.9 78.3 24.2 128.3 46.2 38.2 16.8 55.5 33 72.2 48.8 15.9 14.9 31 29.1 63 41.5 62.5 24.3 114.9 4.5 175.5-18.4 51.1-19.3 109-41.2 185.7-42.9 75.8-1.6 118.8 17.7 168.6 40 49.5 22.2 105.7 47.4 208.5 61 18.9 2.5 39.8 6.7 63.9 11.5 72.9 14.5 172.8 34.3 302.1 21.4 144.2-14.4 231.3-66.7 323.4-122.1 42.8-25.6 86.9-52.2 137.8-75.1 61.7-27.9 135.1-48.2 224.3-62.1 132.1-20.5 252.5-15.6 339 13.8z"/>
			<path id="Layer" class="s6" d="m2183.4 128.7c-83.8-33.9-203.1-43.8-336.2-27.8-92.4 11-164.2 28.3-225.8 54.4-53.3 22.5-99.3 49.4-143.8 75.5-46.3 27.2-90.1 52.9-141.7 74.1-58.5 24.1-116.4 38.1-182.3 44.1-126.9 11.5-220.3-7.2-295.3-22.2-27.7-5.5-51.6-10.3-73.6-12.8-100.1-11.6-155.5-34.7-204.3-55.1-48.9-20.4-91.2-38.1-164.4-35.2-74.2 3-130.5 25.4-180 45.1-59.4 23.6-110.6 43.9-171.9 21.8-32-11.6-47.2-25-63.4-39.2-16.4-14.4-33.5-29.4-69.9-45.1-38.5-16.6-70.2-28.5-100.8-40-60.6-22.9-112.9-42.6-192.1-89.3l-2.8-1.7c-21.1-12.5-45-26.6-69.9-45.3l-5-3.8c-71.4-53.6-152.3-114.4-220.1-206.2l1.9-1.5c67.6 91.6 148.3 152.3 219.6 205.8l4.9 3.7c24.9 18.7 48.7 32.8 69.8 45.2l2.8 1.6c78.9 46.7 131.2 66.4 191.6 89.2 30.7 11.5 62.4 23.4 101 40.1 36.7 15.8 53.9 30.9 70.5 45.5 16 14.1 31 27.3 62.6 38.7 60.5 21.8 111.3 1.6 170.2-21.8 49.8-19.8 106.2-42.2 180.8-45.2 73.8-2.9 116.2 14.8 165.4 35.4 48.7 20.3 104 43.4 203.7 54.9 22.1 2.5 46.1 7.3 73.8 12.8 74.9 15 168.1 33.6 294.7 22.2 144.2-13.1 231-64 323-117.9 44.5-26.1 90.6-53.1 144-75.7 61.9-26.1 133.8-43.4 226.5-54.5 66.3-7.9 128.9-9.6 186-5 57.9 4.7 108.8 15.8 151.3 33z"/>
			<path id="Layer" class="s7" d="m2176.3 146.4c-83.1-38.8-198.8-53.4-334.4-42-94.4 7.9-166.8 22.8-228 46.9-55.7 22-103.5 49.4-149.7 75.8-44.2 25.3-89.9 51.5-141.4 72.1-57.7 23.1-117.4 36.8-182.4 42.1-124.6 10.1-215.5-8.2-288.6-23-30.9-6.2-57.6-11.6-82.7-14.1-96.8-9.6-151.2-30.5-199.2-49-50.4-19.4-90.2-34.7-161.5-30.5-72.1 4.3-126.9 27.2-175.2 47.4-57.6 24-107.3 44.8-166.6 25.1-31.5-10.5-46.8-23-63-36.2-15.6-12.7-33.2-27.2-68.3-41.9-10.8-4.6-21.1-8.9-31-13-94.3-39.4-151.2-63.2-259.9-132.7q-4.5-2.9-9.2-5.9c-19.4-12.3-41.4-26.2-64.1-43.7-9.3-7.1-19-14.4-28.3-21.5-70.4-53.3-143.2-108.5-206.2-187.8l1.9-1.5c62.8 79 135.5 134.1 205.7 187.4 9.4 7 19 14.4 28.3 21.5 22.7 17.4 44.6 31.3 64 43.6q4.7 3 9.2 5.8c108.5 69.4 162.2 91.9 259.5 132.5 9.9 4.2 20.2 8.5 31.1 13.1 35.3 14.8 53.1 29.4 68.8 42.2 16.7 13.7 31.1 25.5 62.2 35.8 58.6 19.4 107.9-1.2 165-25.1 48.5-20.2 103.5-43.2 176-47.5 71.8-4.2 113.8 11.9 162.5 30.7 47.9 18.4 102.1 39.2 198.5 48.8 25.2 2.5 52 7.9 83 14.2 72.9 14.7 163.7 33 288 22.9 144.2-11.7 230.9-61.3 322.7-113.9 46.3-26.5 94.2-53.9 150.1-75.9 61.4-24.2 134-39.1 228.7-47.1 136-11.4 252 3.2 335.6 42.2z"/>
			<path id="Layer" class="s8" d="m2169.3 164.2c-83.1-43.9-195-62.9-332.7-56.2-96.1 4.6-169.2 17.1-230.1 39.4q-2.4 0.9-4.8 1.8c-56 21-104.2 48-150.8 74.1-44 24.6-89.5 50-141.1 70.1-57.8 22.4-117.5 35.6-182.6 40.3-122.6 8.8-211.2-9.3-282.4-23.9-33.9-7-63.2-13-91.4-15.3-93.2-7.8-146.5-26.5-193.5-43-50.1-17.5-89.6-31.3-159.2-25.8-70 5.6-123.3 29.1-170.3 49.8-55.8 24.5-104 45.6-161.3 28.4-31.2-9.4-45.9-20.5-63-33.4-15.4-11.6-32.8-24.8-66.3-38.5-114.4-47-167.1-78.4-289-162.1-4.9-3.4-9.9-6.8-15.3-10.4-17.7-12-37.9-25.6-58.6-41.8-16.6-13-33.4-25.6-51.1-39-65.9-49.7-134.1-101.2-192.7-169.7l1.7-1.6c58.5 68.3 126.6 119.7 192.4 169.4 17.7 13.3 34.5 26 51.1 39 20.7 16.2 40.8 29.7 58.5 41.7 5.3 3.7 10.4 7 15.3 10.4 123.6 84.9 173.4 114.6 288.6 161.8 33.8 13.9 51.3 27.2 66.8 38.9 16.9 12.7 31.4 23.7 62.2 33 56.5 17 104.3-4 159.7-28.3 47.2-20.8 100.7-44.3 171-50 70.1-5.5 109.8 8.4 160.1 26 46.9 16.4 100.1 35 193 42.8 28.3 2.4 57.7 8.4 91.7 15.4 71 14.5 159.5 32.6 281.7 23.8 144.4-10.4 235.1-61.1 322.7-110.1 48-26.9 97.7-54.7 156-76 61.1-22.4 134.5-35 230.8-39.6 66-3.2 127.2-0.3 181.8 8.4 58.3 9.4 109.4 25.5 152.1 48.1z"/>
			<path id="Layer" class="s9" d="m2162.3 181.9c-82.3-48.4-193.6-72-331-70.4-97.5 1.2-171.3 11.3-232.2 32-60.5 20.5-111.7 48.5-161.3 75.6-43.9 24-89.3 48.9-140.9 68.4-57.9 21.8-117.8 34.4-182.9 38.5-120.8 7.7-207.2-10.4-276.7-24.9-36.6-7.6-68.3-14.2-99.6-16.4-89.3-6.2-141.4-22.5-187.4-36.9-49.9-15.7-89.2-28-157.1-21.1-67.9 6.9-119.8 30.9-165.5 52.1-54 25-100.6 46.6-156.1 31.7-30.9-8.3-45.8-18.6-63-30.6-15.2-10.5-32.3-22.5-64.2-35.2-100.3-40.1-150.5-77.3-241.4-144.7-14.4-10.6-29.2-21.6-45.6-33.7-6.8-5-13.9-10-21.4-15.3-16.9-12.1-34.4-24.6-53.1-39.5-23.8-18.9-49.2-37.8-73.7-56.1-61.5-45.7-125.1-92.9-179.6-152l1.8-1.6c54.4 58.8 117.8 106 179.2 151.7 24.5 18.3 49.9 37.1 73.8 56.1 18.6 14.8 36.1 27.3 53 39.4 7.5 5.3 14.6 10.4 21.4 15.4 16.4 12 31.2 23 45.6 33.6 90.8 67.4 140.8 104.5 240.9 144.5 32.1 12.8 49.4 24.8 64.6 35.4 17.1 11.9 31.8 22.1 62.3 30.3 54.6 14.6 100.9-6.8 154.5-31.6 45.9-21.3 97.9-45.3 166.2-52.4 68.4-6.9 108 5.5 158.1 21.2 45.9 14.4 97.9 30.7 186.9 36.9 31.4 2.2 63.2 8.8 99.9 16.5 69.3 14.4 155.6 32.4 276 24.8 144.7-9.2 235.3-58.7 322.9-106.7 49.6-27.1 100.9-55.2 161.6-75.7 61.2-20.8 135.2-31 233-32.2 137.8-1.6 249.5 22.2 332.1 70.8z"/>
			<path id="Layer" class="s10" d="m2155.2 199.6c-81.7-52.8-192.4-81.2-329.1-84.6-98.7-2.3-173.2 5.5-234.5 24.6-62.7 19.6-115.6 47.9-166.7 75.2-42.6 22.8-86 46-135.9 64.8-53 19.9-113.3 34.7-188.2 38.8-119.1 6.6-203.6-11.5-271.4-25.9-39.2-8.4-73-15.6-107.4-17.5-85.1-4.7-136-18.7-180.9-31-49.8-13.8-89.1-24.6-155.6-16.3-65.8 8.3-116.1 32.8-160.6 54.5-52.2 25.5-97.3 47.4-150.7 35-30.9-7.2-46-16.8-63.6-27.9-14.8-9.4-31.7-20.1-61.6-31.8-88-34.2-135.3-73-207.1-131.9-22.6-18.5-48.1-39.4-78-62.8-8.7-6.8-17.9-13.6-27.6-20.9-15.2-11.4-30.8-23.1-47.4-36.5-30.9-25-64.2-49.2-96.3-72.5-57-41.5-115.9-84.3-166.4-135l1.7-1.7c50.3 50.5 109.2 93.3 166.1 134.7 32.1 23.4 65.4 47.5 96.4 72.6 16.5 13.4 32.2 25.1 47.3 36.4 9.7 7.3 18.9 14.2 27.6 20.9 30 23.4 55.6 44.4 78.1 62.9 71.6 58.7 118.9 97.5 206.4 131.5 30.2 11.8 47.2 22.5 62.1 32 17.4 11 32.4 20.5 62.8 27.6 52.6 12.2 97.4-9.6 149.2-34.9 44.6-21.7 95.2-46.4 161.4-54.7 67-8.4 106.5 2.5 156.5 16.3 44.8 12.3 95.6 26.3 180.4 31 34.6 1.9 68.5 9.1 107.7 17.5 67.7 14.4 152 32.4 270.8 25.9 144.9-7.9 235.5-56.4 323.2-103.3 51.2-27.4 104.1-55.7 167.1-75.4 61.5-19.2 136.2-27.1 235.2-24.7 65.1 1.6 124.8 8.9 177.5 21.7 58.3 14.1 109.7 35.4 152.9 63.3z"/>
			<path id="Layer" class="s11" d="m2148.2 217.3c-82.7-58-189.8-90.3-327.5-98.7-99.6-6.1-174.8-0.6-236.5 17.1-65 18.6-119.5 47.1-172.1 74.6-41 21.5-82.7 43.4-130.3 61.2-54.4 20.4-116.5 35.7-194.2 39.3-117.8 5.5-196.8-11.8-266.6-27.1-41.5-9.1-77.2-16.9-114.6-18.5-80.7-3.2-130.1-14.9-173.8-25.2-49.9-11.8-89.4-21.2-154.7-11.4-63.6 9.7-112.6 34.8-155.7 57-50.5 25.9-94.1 48.2-145.5 38.2-31-6-45.8-14.5-64.5-25.3-14.5-8.3-30.9-17.7-58.7-28.2-81.7-30.9-127.2-72.2-190.1-129.5-26.3-23.9-56.1-51.1-93.1-81.5-10.6-8.9-22.1-17.8-34.2-27.3-13.3-10.3-27-20.9-41.3-32.7-38-31.3-79.1-60.2-118.8-88.3-52.5-37-106.8-75.4-153.3-118.6l1.6-1.8c46.4 43.2 100.6 81.4 153.1 118.4 39.7 28.1 80.8 57.1 118.9 88.4 14.3 11.8 28 22.4 41.2 32.7 12.2 9.5 23.7 18.5 34.4 27.3 36.9 30.5 66.7 57.6 93 81.6 62.8 57.1 108.1 98.3 189.5 129.1 27.9 10.5 44.4 20 58.9 28.4 18.6 10.6 33.2 19 63.9 25 50.6 9.8 93.8-12.3 143.9-38 43.3-22.3 92.5-47.5 156.5-57.2 65.8-9.9 105.4-0.5 155.6 11.3 43.5 10.3 92.9 22 173.3 25.2 37.6 1.6 73.5 9.4 115 18.5 69.7 15.3 148.6 32.5 266 27.1 145.2-6.8 235.9-54.3 323.6-100.2 52.7-27.6 107.2-56.2 172.5-74.9 62-17.8 137.4-23.2 237.3-17.1 64.5 3.9 123.5 13.4 175.4 28.2 58.3 16.6 109.8 40.4 153.3 71z"/>
			<path id="Layer" class="s12" d="m2141.2 235.1c-82.8-62.8-189.3-99.7-325.7-113-100.4-9.8-176.2-6.7-238.7 9.6-67.3 17.6-120.7 45-177.3 74-88 45.1-179 91.8-325.1 97.4-116.5 4.5-193.9-12.9-262.2-28.3-43.5-9.8-81-18.3-121.5-19.3-75.7-2.1-123.5-11.4-165.7-19.7-50.4-9.9-90.2-17.6-154.6-6.2-61.6 11-109 36.7-150.9 59.4-48.7 26.3-90.8 49.1-140.2 41.4-31.5-4.9-46.9-12.8-66.3-22.8-13.9-7.1-29.6-15.2-54.9-24.5-78-28.6-120.6-71.4-179.5-130.7-28.3-28.5-60.3-60.7-101.7-96.7-12.8-11.2-26.9-22.5-41.8-34.6-11-8.9-22.5-18.1-34.3-28-45.1-37.6-94-71-141.4-103.2-50.1-34.2-97.5-66.4-140.1-103l1.5-1.9c42.5 36.5 89.9 68.7 139.9 102.9 47.4 32.3 96.4 65.6 141.6 103.3 11.8 9.9 23.2 19.1 34.3 28 14.9 12.1 29 23.5 41.9 34.6 41.4 36.1 73.5 68.4 101.8 96.8 58.7 59.1 101.1 101.8 178.6 130.2 25.5 9.3 41.2 17.5 55.2 24.7 20 10.3 34.5 17.7 65.6 22.5 48.6 7.5 90.3-15 138.6-41.2 42.1-22.7 89.7-48.5 151.7-59.6 64.8-11.5 104.8-3.7 155.5 6.2 42.1 8.3 89.8 17.6 165.3 19.6 40.7 1.1 78.4 9.6 122 19.4 68.1 15.3 145.4 32.7 261.5 28.3 145.6-5.7 236.4-52.2 324.2-97.2 54.1-27.8 110.2-56.5 177.7-74.2 62.8-16.4 138.9-19.5 239.5-9.7 136.9 13.4 243.8 50.5 326.9 113.5z"/>
			<path id="Layer" class="s13" d="m2134.2 252.8c-83.1-67.4-189.1-109-324-127.2-100.8-13.5-177.3-12.8-240.9 2.2-69.4 16.4-124.2 44-182.3 73.2-37.8 19-76.2 38.2-119.4 54.4-57.3 21.5-122.8 37.5-206.4 40.1-115.4 3.5-191.2-14.1-258.1-29.6-45.4-10.5-84.5-19.6-128.1-20.1-70.1-1-116.1-8-156.6-14.2-53.3-8.2-91.8-14.2-155.6-1-59.5 12.5-105.5 38.8-146.1 62-46.9 26.7-87.5 49.9-134.9 44.6-32.4-3.7-47.8-10.7-69.1-20.5-13-6-27.8-12.8-50.1-20.7-75.4-26.8-115.9-71.5-171.8-133.4-29.4-32.6-62.8-69.5-107.4-110.3-15.2-13.9-32.3-28.2-50.4-43.3-8.5-7-17.3-14.3-26.3-22-52.2-44.1-109.1-81.3-164.2-117.3-45.2-29.6-88-57.6-126.7-88.2l1.4-2c38.6 30.6 81.4 58.6 126.6 88.2 55.1 36 112.1 73.3 164.4 117.5 9 7.6 17.8 14.9 26.3 22 18.1 15.1 35.2 29.3 50.5 43.3 44.7 40.9 78.1 77.8 107.6 110.4 55.7 61.7 95.9 106.2 170.8 132.8 22.4 8 37.2 14.8 50.4 20.8 21.1 9.7 36.3 16.7 68.3 20.2 46.7 5.3 86.9-17.7 133.5-44.3 40.7-23.3 86.9-49.6 146.7-62.2 64.3-13.2 105-7 156.5 0.9 40.5 6.3 86.3 13.3 156.3 14.2 43.8 0.6 83.1 9.8 128.6 20.3 66.8 15.5 142.4 33 257.4 29.5 146.1-4.5 237-50.2 324.9-94.3 58.2-29.2 113.2-56.8 182.8-73.3 63.8-15.1 140.6-15.8 241.7-2.2 135.4 18.2 241.8 59.9 325.2 127.7z"/>
			<path id="Layer" class="s14" d="m2127.2 270.5c-83.6-72.2-189-118.4-322.3-141.3-101-17.4-178.2-19.1-243-5.3-71.5 15.2-127.7 42.8-187.2 72.1-36.3 17.9-73.1 36-114.1 51.4-58.7 22-126 38.4-212.6 40.4-114.3 2.7-188.7-15.1-254.3-30.8-47.1-11.3-87.7-21-134.3-21-63.9 0-107.5-4.8-145.9-9.1-54.9-6.2-94.5-10.6-158.3 4.6-57.2 13.9-101.8 40.8-141.2 64.5-45.1 27.2-84.1 50.7-129.6 47.8-33.9-2.3-48.8-8.3-73.5-18.4-11.8-4.8-25.1-10.3-43.7-16.6-33.9-11.7-62.8-28.8-90.8-54.1-25.7-23.2-48.5-50.8-74.9-82.9-30.2-36.5-64.3-77.8-111.6-123.1-18-17.3-38.7-35-60.7-53.7q-8.1-6.9-16.6-14.2c-59.3-50.8-124.3-91.4-187.1-130.6-40.3-25.2-78.4-49-113.2-74.3l1.4-2c34.7 25.3 72.8 49.1 113 74.2 62.9 39.3 128 79.9 187.5 130.9q8.4 7.3 16.5 14.2c22 18.7 42.8 36.5 60.9 53.7 47.3 45.4 81.5 86.9 111.7 123.4 53.3 64.6 91.7 111.2 164.7 136.2 18.6 6.4 32 11.8 43.8 16.6 24.5 10 39.3 16.1 72.8 18.3 44.6 2.9 83.4-20.4 128.2-47.5 39.5-23.8 84.2-50.7 141.8-64.7 64.2-15.3 104-10.9 159.1-4.7 38.4 4.3 81.9 9.1 145.7 9.1 46.8 0 87.6 9.7 134.8 21.1 65.5 15.6 139.7 33.4 253.7 30.8 146.6-3.5 237.6-48.3 325.7-91.6 59.7-29.4 116-57.1 187.8-72.4 65.1-13.8 142.6-12.1 243.9 5.3 133.7 23 239.5 69.4 323.4 141.9z"/>
			<path id="Layer" class="s15" d="m2120.1 288.3c-84.2-77.1-189.1-128-320.5-155.6-101-21.2-178.9-25.2-245.2-12.7-73.6 13.9-131.1 41.7-192.1 71.1-34.7 16.7-69.9 33.7-108.8 48.3-60.1 22.5-129.1 39.4-218.7 40.8-113.5 1.8-186.5-16.2-250.9-32.2-48.7-12-90.6-22.4-140.2-21.7-56.8 0.8-97.4-2-133.2-4.5-57.3-4-98.6-6.8-162.9 10.8-55.1 15.2-98.3 42.7-136.3 67-43.4 27.6-80.9 51.5-124.3 50.8-36.2-0.5-50.9-5.9-80.4-16.6-9.8-3.6-20.8-7.6-34.8-12.2-33.2-11-61.4-28.3-88.6-54.5-24.9-23.9-46.8-52.8-72.1-86.3-30.6-40.4-65.3-86.1-114.7-135.6-21.4-21.4-46.7-43.4-73.6-66.7l-4.3-3.8c-66.7-57.9-139.8-101.2-210.4-143.1-35.3-20.9-68.6-40.7-99.2-61.2l1.3-2c30.5 20.5 63.8 40.1 99.1 61.1 70.7 41.9 143.9 85.3 210.8 143.4l4.3 3.7c26.9 23.4 52.3 45.4 73.7 66.8 49.5 49.7 84.2 95.5 114.9 135.9 49.2 65 88.1 116.4 159.5 140 14 4.6 25.1 8.7 34.9 12.2 29.2 10.6 43.9 15.9 79.6 16.5 42.7 0.7 79.9-23 123-50.5 38.2-24.3 81.5-51.9 137-67.3 64.7-17.7 106.2-14.8 163.7-10.8 35.8 2.4 76.3 5.2 133 4.4 49.9-0.7 92 9.7 140.7 21.8 64.3 15.9 137.2 34 250.3 32.1 147.1-2.3 238.4-46.3 326.6-88.9 61.1-29.5 118.8-57.3 192.7-71.3 66.5-12.5 144.8-8.5 246.1 12.8 131.9 27.7 237.1 78.7 321.7 156.2z"/>
			<path id="Layer" class="s16" d="m2113.1 306c-85.1-82.1-189.3-137.6-318.8-169.7-100.8-25.1-179.4-31.5-247.3-20.2-75.6 12.5-134.5 40.4-196.9 69.9-88.7 41.9-180.4 85.3-328.6 86.6-112.7 1-184.5-17.4-247.8-33.7-49.9-12.8-93.1-23.9-145.6-22.4-48.4 1.4-85 0.4-117.2-0.5-63.4-1.8-105.2-3-170.9 17.5-53 16.7-94.7 44.8-131.5 69.6-41.6 28.1-77.6 52.4-119 54-39.3 1.4-54.4-3.5-90.8-15.5-6.6-2.1-14-4.6-22.4-7.2-32.7-10.4-60.2-27.8-86.7-54.9-24.1-24.8-45.2-55-69.6-90-30.9-44.2-65.8-94.3-117.1-147.9-23.1-24-50.3-48.3-78.5-73-74.2-65.3-159.2-112.8-234.2-154.8-30.1-16.8-58.5-32.8-84.9-48.9l1.3-2.1c26.3 16.2 54.7 32 84.7 48.8 75.1 42.1 160.2 89.8 234.7 155.2 28.2 24.8 55.5 49 78.6 73.1 51.4 53.7 86.4 103.9 117.3 148.2 47.5 68 84.9 121.7 155.1 143.9 8.3 2.7 15.8 5.2 22.4 7.3 36.1 11.9 51.1 16.8 90 15.3 40.7-1.5 76.4-25.6 117.8-53.5 36.9-24.9 78.7-53.1 132-69.9 66.1-20.7 108.1-19.5 171.7-17.7 32.3 0.9 68.8 1.9 117.1 0.6 52.8-1.6 96.1 9.6 146.3 22.4 63.2 16.3 134.8 34.6 247.2 33.6 147.6-1.3 239.1-44.5 327.6-86.4 62.5-29.5 121.5-57.4 197.5-70.1 68.2-11.3 147.1-4.9 248.2 20.2 129.9 32.3 234.6 88 320 170.4z"/>
			<path id="Layer" class="s17" d="m2106.1 323.7c-86.1-87.2-189.8-147.4-317.1-183.9-99.1-28.5-180.7-37.5-249.4-27.7-77.7 11.2-137.9 39.1-201.6 68.6-88.9 41.3-180.9 83.9-329.7 84.2-112.1 0.2-182.7-18.5-245-35.1-51.2-13.7-95.4-25.4-150.9-23-38 1.6-68.8 1.9-96 2.2-72.2 0.8-115.7 1.3-184 25.5-50.8 18.1-91.1 46.9-126.6 72.3-28.8 20.6-54.8 39.2-81.8 49.3-10.3 3.9-21 6.5-31.9 7.6-43.4 4.2-58-0.3-106.5-15l-4.8-1.5c-32.1-9.8-59.1-27.4-84.9-55.4-23.5-25.6-43.8-57.1-67.4-93.7-31-48-66.1-102.4-119.1-160-24.3-26.4-53.6-53.1-79-75.6-82.1-72.9-175.8-122.2-258.6-165.7-24.7-12.9-48-25.2-69.9-37.5l1.1-2.1c22 12.3 45.2 24.5 69.9 37.5 82.9 43.5 176.8 92.8 259 165.9 25.5 22.7 54.8 49.4 79.2 75.8 53.2 57.8 88.3 112.3 119.4 160.4 45.8 71 81.9 127.1 151 148.1l4.8 1.4c48.1 14.7 62.6 19.1 105.5 15 38.8-3.7 73-28.2 112.6-56.5 35.6-25.5 76-54.3 127.2-72.6 68.6-24.3 112.3-24.8 184.7-25.6 27.2-0.3 58.1-0.6 96-2.2 55.8-2.4 100.2 9.4 151.6 23.1 62.1 16.5 132.6 35.2 244.4 35 148.3-0.3 240-42.8 328.7-84 63.8-29.6 124.2-57.6 202.2-68.8 69.1-9.8 151-0.8 250.4 27.8 127.8 36.6 231.8 97 318.2 184.6z"/>
			<path id="Layer" class="s18" d="m2099.1 341.5c-87.2-92.6-190.3-157.4-315.4-198.2-98.6-32.2-180.9-43.7-251.6-35.1-79.7 9.7-141.1 37.6-206.1 67.2-89.2 40.6-181.5 82.6-330.9 81.9-111.5-0.6-181.1-19.8-242.4-36.7-52.4-14.5-97.5-26.9-156-23.6-24.8 1.5-46.9 2.5-66.5 3.3-88.4 4-132.8 6.1-205.4 35.1-48.7 19.7-87.5 49.1-121.7 75-38.1 29-71.1 54-108.4 59.9-43.2 6.9-59.3 4.2-109.3-10.3-31.8-9.2-58.3-27-83.4-56-22.9-26.3-42.6-59.2-65.4-97.3-31-51.9-66.2-110.7-120.7-172.1-20.5-23.1-45-47.2-79.6-78.3-90.1-80.9-192.8-131.2-283.5-175.5-19.1-9.4-37.1-18.2-54.4-27l1.1-2.2c17.2 8.8 35.3 17.6 54.4 27 90.7 44.4 193.6 94.7 284 175.9 34.6 31.1 59.2 55.3 79.7 78.4 54.8 61.7 90 120.6 121.1 172.6 44.3 73.9 79.2 132.4 147.3 152.2 49.6 14.4 65.5 17.1 108.3 10.2 36.7-5.8 69.5-30.7 107.4-59.4 34.3-26 73.3-55.5 122.2-75.3 73-29.2 120.3-31.4 206.2-35.3 19.6-0.9 41.7-1.9 66.5-3.3 58.8-3.4 104.2 9.2 156.7 23.7 61.2 16.9 130.6 36 241.8 36.6 148.9 0.7 240.9-41.2 329.9-81.7 65.2-29.7 126.8-57.7 206.8-67.4 71.1-8.6 153.8 2.9 252.7 35.2 125.4 41 228.9 106 316.4 198.8z"/>
			<path id="Layer" class="s19" d="m2092.1 359.2c-88.4-97.9-191-167.4-313.6-212.4-97.9-35.9-181-49.8-253.8-42.5-81.7 8.1-144.4 36.1-210.7 65.7-28.4 12.7-57.1 25.6-87.9 37.1-66.1 24.8-141.7 43.7-244.2 42.6-111.1-1.3-179.7-21-240.2-38.4-53.3-15.3-99.3-28.5-160.6-24l-22.4 1.6c-111.3 8-162 11.7-241.5 47.5-46.4 21.2-83.8 51.2-116.7 77.8-36.4 29.3-67.9 54.7-103.2 62.8-42 9.6-60.1 8.9-107.4-4.2-31.4-8.7-57.5-26.6-82-56.5-22.3-27.1-41.3-61.4-63.4-101-31-55.7-66.1-118.8-122.1-184.3-21.3-24.8-46.7-50.5-80.2-80.8-98.5-89.4-215.2-142.2-309.1-184.6-13.3-6-25.9-11.7-38.1-17.3l0.9-2.2c12.3 5.6 24.9 11.3 38.2 17.3 94 42.5 210.9 95.3 309.7 184.9 33.5 30.5 59.1 56.2 80.4 81.1 56.2 65.6 91.3 128.9 122.4 184.7 42.8 76.9 76.7 137.8 143.9 156.3 47.4 13.1 64.3 13.8 106.2 4.2 34.8-8 66.1-33.2 102.3-62.3 33-26.7 70.5-56.9 117.2-78.1 79.8-36 130.7-39.7 242.3-47.7l22.3-1.7c61.8-4.5 108 8.8 161.5 24.2 60.4 17.3 128.8 36.9 239.6 38.2 149.6 1.7 241.9-39.5 331.1-79.4 66.5-29.7 129.3-57.8 211.4-66 73.2-7.3 156.6 6.7 254.8 42.7 57.3 21 109.1 46.8 158.3 78.8 56.5 36.8 109.1 81.9 156.3 134.3z"/>
			<path id="Layer" class="s20" d="m2085.1 377c-89.8-103.6-191.8-177.7-312-226.7-97-39.5-180.7-55.8-255.9-50-83.6 6.6-147.4 34.6-215.1 64.2-89.8 39.4-182.6 80.1-333.4 77.5-110.8-2-178.5-22.2-238.2-40-54.1-16.2-100.9-30.2-165.1-24.5-121.5 10.8-175 18.8-255.8 59.9-44.2 22.7-80.1 53.4-111.7 80.6-34.7 29.7-64.7 55.4-98 65.6-40.5 12.3-59.2 14.1-105.4 2-31.1-8.1-56.8-26.2-80.7-56.9-21.8-28-40.2-63.6-61.6-104.8-30.9-59.6-65.9-127.1-123.3-196.4-21.8-26.4-48.3-53.7-80.7-83.4-107.4-98.5-233.9-150.6-335.6-192.6q-10.8-4.4-21.1-8.7l0.9-2.3q10.3 4.3 21.1 8.8c101.8 41.9 228.6 94.3 336.3 193 32.5 29.8 59 57.2 80.9 83.7 57.6 69.5 92.7 137.1 123.6 196.8 41.5 79.9 74.2 143.1 140.8 160.5 45.6 11.9 64.1 10.2 104-2 33-10 62.7-35.6 97.2-65.2 31.8-27.2 67.8-58.1 112.3-80.9 81.1-41.2 134.7-49.2 256.6-60.1 64.6-5.7 111.6 8.3 166 24.6 59.6 17.8 127.1 37.9 237.5 39.9 150.3 2.6 242.9-38 332.5-77.3 67.8-29.7 131.8-57.8 215.8-64.4 75.6-5.9 159.7 10.5 257 50.2 55 22.4 107.5 50.9 156.3 85 56.1 39.3 108.8 87.1 156.6 142.3z"/>
			<path id="Layer" class="s21" d="m2078.1 394.7c-90-107.8-194.3-188.8-310.3-240.9-96-43.1-180.4-61.8-258-57.4-85.6 4.9-150.6 33-219.5 62.6-44.3 19.1-90.2 38.9-143.8 53.4-60.7 16.4-123.2 23.6-191 21.9-110.5-2.6-177.4-23.4-236.4-41.8-54.9-17.1-102.3-31.8-169.4-24.7-118.5 12.5-174 28.4-247.7 70.5-41.9 24.2-76.3 55.7-106.7 83.5-32.9 30.1-61.4 56.2-92.9 68.4-36.9 14.3-57.8 19.4-103.3 8.2-30.9-7.6-56.2-25.8-79.6-57.4-21.2-28.8-39.1-65.8-59.8-108.5-30.8-63.4-65.6-135.3-124.3-208.5-22.6-28.3-49.2-56.4-81.3-86.1-116.8-108.1-259.1-161-363-199.6l-3.1-1.1 0.9-2.3 3 1.2c104.1 38.6 246.7 91.6 363.8 200 32.2 29.8 58.9 58 81.6 86.3 58.8 73.5 93.7 145.5 124.5 209.1 40.2 82.9 71.9 148.4 137.8 164.5 44.9 11.1 65.6 6 102-8.1 31-12 59.3-37.9 92.1-67.9 30.4-27.9 64.9-59.5 107.1-83.8 39.5-22.6 72-36.6 108.7-47 35.8-10.1 77.6-17.2 140-23.8 67.5-7.2 115.1 7.6 170.3 24.8 58.9 18.3 125.6 39.1 235.7 41.7 151 3.6 244-36.4 333.9-75.1 69-29.8 134.2-57.9 220.2-62.8 37.2-2.2 77 1.2 118.1 10 44.2 9.4 91.7 25.4 141.1 47.6 54.5 24.6 106.3 55.1 154.3 91.2 55.7 41.7 108.4 92.3 156.8 150.3z"/>
			<path id="Layer" class="s22" d="m2071.1 412.4c-91.5-113.6-195.4-199.4-308.5-255-93.7-46-181.2-67.9-260.2-64.9-87.6 3.2-153.7 31.3-223.8 60.9-44.5 18.8-90.5 38.3-144.4 52.5-61 16-123.8 22.9-191.9 20.8-110.3-3.3-176.4-24.7-234.8-43.7-55.6-18-103.6-33.6-173.4-25-106.5 13.3-164.8 33-239.6 81.3-39.7 25.8-72.6 57.9-101.6 86.3-31.3 30.6-58.3 57-87.9 71.2-37.4 18-59.8 24-101.4 14.4-30.6-7-55.5-25.4-78.4-57.8-20.8-29.6-38.2-67.9-58.2-112.1-30.6-67.4-65.2-143.7-125.1-220.8-23-29.6-50.5-59.4-81.9-88.7-116.5-108.8-254.8-160.3-375.4-200.1l0.7-2.3c120.8 39.8 259.5 91.4 376.4 200.6 31.5 29.4 59.1 59.3 82.1 89 60.1 77.3 94.7 153.8 125.4 221.3 40.4 89.2 69.7 153.6 134.9 168.6 40.9 9.3 63 3.4 99.9-14.2 29.1-14 56-40.3 87.2-70.8 29.1-28.5 62.1-60.7 102-86.6 38.4-24.9 69.8-40.7 105-52.8 37.2-12.9 79-21.8 135.6-28.8 70.3-8.8 118.5 6.9 174.4 25.1 58.2 18.8 124.2 40.2 234.1 43.5 151.8 4.5 245.1-35 335.3-73.1 70.3-29.8 136.7-57.9 224.7-61.1 37.9-1.4 78 2.7 119.1 12.5 45.1 10.7 92.9 28.4 142.2 52.6 52.9 26 104.2 58.7 152.3 97.3 55.2 44.2 108 97.5 157 158.4z"/>
			<path id="Layer" class="s23" d="m2064.1 430.2c-93.2-119.7-196.4-210.3-306.8-269.3-92.5-49.4-180.8-73.7-262.4-72.4-89.4 1.6-156.7 29.6-228 59.2-44.6 18.6-90.7 37.8-144.9 51.6-61.4 15.8-124.5 22.2-193 19.8-110.1-3.9-175.6-26.1-233.3-45.7-58.5-19.9-104.8-35.5-177.3-25.1-109.5 15.7-167.8 45.6-231.5 92-37.4 27.3-68.8 60.2-96.5 89.2-28.3 29.7-55.1 57.8-82.8 73.9-35.6 20.8-59.5 29.1-99.4 20.7-30.5-6.4-55-25-77.4-58.3-20.3-30.3-37.2-69.9-56.6-115.7-30.3-71.3-64.7-152.2-125.8-233.1-23.5-31.3-51.3-62-82.4-91.3-118.9-112.1-261.3-163.7-384.8-199.5l0.6-2.4c123.9 35.9 266.6 87.7 385.8 200 31.3 29.5 59.1 60.3 82.8 91.7 61.2 81.2 97.1 165.7 126 233.6 19.4 45.7 36.2 85.2 56.4 115.3 22 32.8 46.1 50.9 75.9 57.2 39.2 8.3 62.7 0.1 97.7-20.3 27.4-16 52.8-42.7 82.3-73.5 27.8-29.1 59.2-62.1 96.8-89.5 36.7-26.8 68-44.8 101.3-58.7 37.7-15.6 79.4-26.3 131.3-33.7 73-10.5 121.8 6 178.3 25.2 57.6 19.5 122.8 41.6 232.7 45.6 152.6 5.4 246.3-33.5 336.9-71.2 71.5-29.7 139-57.8 228.9-59.4 38.7-0.6 79.2 4.4 120.3 15.1 46 12 94.1 31.3 143.2 57.6 51.7 27.6 102.3 62.4 150.3 103.4 54.7 46.6 107.6 102.6 157.2 166.5z"/>
			<path id="Layer" class="s24" d="m2057.1 447.9c-95-126-197.7-221.4-305.1-283.5-91.5-52.9-180.5-79.7-264.5-79.8-91.4-0.3-160 27.7-232.5 57.4-44.7 18.3-91 37.2-145.4 50.8-61.6 15.4-125 21.5-193.8 18.6-110.1-4.5-175-27.5-232.2-47.8-59-20.9-105.7-37.4-180.8-25.1-102.3 16.8-163.3 53.2-223.5 102.7-35 28.9-64.8 62.5-91.2 92.1-26.7 30.2-52 58.7-77.9 76.7-32.5 22.6-58.8 34.3-97.5 26.8-30.2-5.8-54.4-24.4-76.3-58.5-19.9-31.1-36.2-72-55.1-119.4-28.6-71.6-64.1-160.6-126.3-245.5-24.9-33.7-52.7-65.2-83.1-93.9-128-121.6-286.3-171.7-394.2-198.9l0.5-2.3c47.1 11.8 118.3 31.5 192.6 65.1 78 35.5 146.2 80.7 202.8 134.3 30.4 28.9 58.3 60.4 83.3 94.3 62.4 85.1 98 174.3 126.6 246 18.8 47.3 35.1 88.1 54.9 119 21.5 33.5 45.2 51.8 74.8 57.5 38 7.3 62.9-3.7 95.6-26.5 25.7-17.9 50.9-46.3 77.6-76.3 26.3-29.7 56.2-63.4 91.4-92.4 60.5-49.7 121.8-86.3 224.6-103.2 75.7-12.4 122.6 4.2 182 25.2 57 20.2 121.7 43.1 231.5 47.7 153.2 6.4 247.2-32.1 338.2-69.3 72.8-29.7 141.5-57.9 233.4-57.5 39.5 0 80.4 5.9 121.6 17.6 46.7 13.2 95.2 34.2 144.1 62.5 107.7 62.3 210.6 157.9 305.8 284.1z"/>
			<path id="Layer" class="s25" d="m2050.1 465.7c-97-132.6-199.1-232.8-303.4-297.8-90-56.1-179.7-85.4-266.6-87.2-93.2-2.1-162.8 25.9-236.6 55.5-44.9 18.1-91.3 36.7-146 50-62 15.1-125.7 20.8-194.9 17.6-110.1-5.2-174.5-29-231.3-50.1-59.5-22-106.6-39.4-184.2-24.9-103.3 19.3-166.8 68.1-215.4 113.3-32.6 30.5-60.8 64.7-85.7 94.9-25.2 30.7-49.1 59.6-73.2 79.6-29.8 24.6-57.4 39.6-95.5 33-30.1-5.1-54.1-23.9-75.5-58.9-19.5-31.8-35.4-74.1-53.8-123.1-28.2-75.3-63.4-169-126.5-257.7-24.9-34.8-52.9-67.1-83.7-96.6-100.8-96.7-232.8-161.6-403.6-198.2l0.5-2.4c73.8 15.9 138.3 36.2 197.2 62.1 79.7 35.1 149.6 81.1 207.6 136.8 30.9 29.5 59 62 83.9 96.8 63.4 89.1 98.6 182.9 126.9 258.3 18.3 48.9 34.1 91.1 53.5 122.8 21.1 34.3 44.5 52.7 73.9 57.7 37.2 6.5 64.3-8.3 93.5-32.5 24-19.8 47.8-48.7 72.9-79.2 25-30.3 53.2-64.6 86-95.2 32.5-30.3 62.4-52.7 93.9-70.3 37.5-20.9 77.6-35.2 122.6-43.6 78.4-14.6 125.7 2.9 185.5 25.1 56.6 20.9 120.8 44.7 230.6 49.9 154.2 7.2 248.6-30.7 339.9-67.4 74-29.8 143.8-57.8 237.5-55.7 40.5 0.8 81.8 7.6 122.8 20.1 47.7 14.5 96.5 37.2 145.1 67.4 104.6 65.2 206.9 165.6 304 298.4z"/>
			<path id="Layer" class="s26" d="m2043.1 483.4c-186.3-262-378.3-398.9-570.5-406.6-94.9-3.8-165.6 24.1-240.5 53.6-45 17.8-91.6 36.2-146.6 49.3-62.4 14.7-126.5 20.1-196.1 16.5-110.3-5.8-176.9-31.7-230.5-52.5-60-23.2-107.4-41.6-187.5-24.7-141.2 29.9-222.3 136.2-287.4 221.6-26.9 35.4-52.3 68.8-78.2 91.4-28.7 25.1-55.4 34.8-83.9 30.5-29.9-4.5-53.6-23.3-74.5-59-19.1-32.6-34.4-76.1-52.2-126.6-39.5-111.9-88.7-251.3-211.4-369.7-104.4-100.7-243.3-167.2-413-197.6l0.4-2.4c170.1 30.5 309.5 97.2 414.3 198.3 54.7 52.7 99.7 114.4 137.5 188.5 32.8 64 54.9 126.7 74.4 182.1 17.8 50.3 33.1 93.7 52.1 126.1 20.5 35 43.6 53.4 72.7 57.8 27.9 4.2 53.9-5.3 82.1-29.9 25.6-22.5 51-55.8 77.9-91 32.6-42.8 69.6-91.3 115.7-132.3 53.2-47.3 109.8-76.8 173-90.1 80.8-17.1 128.5 1.4 188.8 24.7 56.2 21.8 119.9 46.5 229.8 52.3 155.1 8.2 250-29.3 341.7-65.5 75.1-29.7 146-57.7 241.5-53.9 39.4 1.7 78.4 8.5 116.2 20.1 45.2 13.9 90.8 35.2 135.7 63.3 50.9 31.8 102.3 73.4 152.8 123.4 56 55.6 112.3 123.2 167.6 200.9z"/>
		</g>
	</g>
</svg>